<?xml version="1.0" encoding="UTF-8" standalone="no"?><!DOCTYPE svg PUBLIC "-//W3C//DTD SVG 1.1//EN" "http://www.w3.org/Graphics/SVG/1.1/DTD/svg11.dtd"><svg width="100%" height="100%" viewBox="0 0 4688 3375" version="1.1" xmlns="http://www.w3.org/2000/svg" xmlns:xlink="http://www.w3.org/1999/xlink" xml:space="preserve" xmlns:serif="http://www.serif.com/" style="fill-rule:evenodd;clip-rule:evenodd;stroke-linejoin:round;stroke-miterlimit:2;"><g id="Fondo"><path d="M468.986,494.121c1.09,-22.24 0.495,-22.213 1.177,-24.011c1.904,-5.02 35.62,-4.755 38.743,-4.731c9.169,0.072 9.814,0.718 48.805,39.388c11.029,10.938 129.053,127.993 137.516,137.073c37.611,40.353 212.141,213.301 230.723,231.714c167.186,165.67 168.484,164.492 168.842,164.456c5.824,-0.582 5.522,-24.44 5.495,-26.614c-0.541,-42.838 -4.413,-349.315 0.109,-535.513c0.243,-10.002 2.441,-10.527 12.66,-10.514c24.085,0.03 20.816,8.737 105.497,92.687c374.625,371.391 1106.35,1106.837 1135.995,1134.229c11.717,10.827 11.859,-0.12 23.814,-10.518c17.282,-15.033 15.527,-16.222 31.932,-32.37c400.933,-394.657 532.161,-534.484 573.565,-571.07c16.821,-14.864 31.776,-34.623 35.233,-37.564c54.648,-46.495 50.221,-50.824 55.047,-54.733c30.324,-24.565 517.278,-520.827 524.703,-519.633c3.955,0.636 3.47,2.914 3.47,366.468c0,216.661 -1.019,221.426 5.716,220.712c4.663,-0.494 385.165,-384.106 525.824,-523.337c41.06,-40.643 83.336,-91.656 83.361,-49.856c0.147,248.672 3.102,248.771 -0.409,270.091c-2.392,14.523 -266.324,270.321 -374.966,380.373c-104.184,105.537 -231.335,229.313 -236.907,238.437c-5.618,9.199 -1.379,676.594 -2.625,868.91c-0.168,25.868 -21.105,37.846 -39.718,55.382c-43.774,41.242 -39.465,44.841 -83.717,85.591c-58.191,53.585 -71.657,77.441 -70.572,55.636c1.319,-26.516 1.122,-26.054 1.122,-668.101c0,-186.87 7.587,-200.767 -7.121,-195.434c-4.68,1.697 -74.617,71.92 -80.977,78.305c-10.022,10.063 -118.573,119.058 -123.67,127.36c-6.737,10.973 -1.989,634.122 -3.29,905.282c-0.092,19.095 -3.183,19.569 -161.222,176.01c-43.537,43.097 -60.645,68.909 -58.846,39.217c0.403,-6.655 -0.02,-487.376 0.193,-787.42c0.069,-96.704 4.455,-97.331 0.555,-104.748c-5.612,-10.673 -7.374,-0.492 -18.796,11.576c-21.59,22.811 -39.395,37.004 -42.1,40.11c-37.345,42.875 -93.065,90.759 -218.664,220.975c-70.648,73.245 -72.947,70.285 -78.94,76.739c-22.146,23.852 -23.689,21.973 -45.804,45.69c-6.006,6.44 -30.633,32.852 -76.572,79.078c-5.1,5.132 -58.628,58.995 -64.314,63.591c-36.019,29.109 -57.87,72.856 -75.509,56.06c-6.374,-6.069 -63.722,-60.673 -78.398,-77.183c-30.292,-34.077 -493.669,-492.002 -525.381,-527.663c-0.715,-0.804 -13.668,-15.37 -13.363,1.51c1.251,69.35 -0.019,864.153 0.64,883.408c1.133,33.097 -17.009,0.501 -44.875,-25.823c-5.659,-5.346 -42.837,-40.467 -69.967,-67.622c-8.402,-8.41 -102.991,-103.086 -104.816,-105.327c-5.767,-7.083 -5.079,-8.386 -5.025,-799.25c0.008,-118.251 4.148,-122.34 -16.73,-140.617c-37.048,-32.435 -119.855,-122.081 -163.334,-161.785c-20.742,-18.941 -41.202,-50.095 -40.418,-27.066c2.244,65.931 -0.079,860.868 1.205,878.912c0.089,1.251 1.651,23.206 -14.104,6.846c-161.18,-167.368 -165.537,-163.592 -175.524,-181.125c-10.118,-17.763 0.747,-895.157 -5.771,-910.421c-2.992,-7.006 -485.432,-486.793 -527.819,-528.947c-95.058,-94.536 -95.535,-96.101 -95.672,-107.62c-1.277,-107.647 -5.822,-107.202 -6.006,-215.2Zm1001.624,924.224c23.094,21.177 21.159,22.648 277.995,275.909c92.857,91.564 115.209,116.456 124.725,127.054c16.784,18.691 19.214,15.756 223.193,220.877c94.751,95.281 252.692,257.602 261.771,257.317c12.341,-0.388 187.224,-186.914 228.387,-222.019c1.977,-1.686 66.285,-70.47 100.787,-100.584c6.828,-5.96 5.178,-7.395 78.795,-81.403c48.091,-48.347 48.713,-47.334 96.199,-96.102c39.575,-40.644 41.86,-37.869 81.528,-78.647c231.507,-237.981 461.049,-454.705 464.645,-470.909c1.602,-7.219 0.597,-320.044 0.594,-320.048c-0.208,-0.338 -7.679,-3.42 -11.187,0.182c-60.858,62.493 -990.931,992.643 -1025.656,1024.838c-15.16,14.055 -16.748,27.374 -31.088,12.095c-0.719,-0.767 -1020.442,-1018.786 -1027.96,-1027.727c-1.098,-1.306 -21.371,-25.414 -20.609,-5.473c3.972,103.909 -4.501,297.427 5.23,309.906c14.066,18.039 135.105,133.703 172.649,174.734Z" style="fill:#fe8400;"/></g></svg>