<svg xmlns="http://www.w3.org/2000/svg" viewBox="0 0 1024 1024" role="img" aria-label="Candas" style="fill-rule:evenodd;clip-rule:evenodd;stroke-linejoin:round;stroke-miterlimit:2;">
  <rect x="0" y="0" width="1024" height="1024" fill="#0b1623"/>
  <g transform="translate(143.5 199.25) scale(0.3805)">
    <rect x="0" y="0" width="1937" height="1644" rx="240" fill="#f5f5f5"/>
    <path d="M472.591,824.491c0.219,-8.602 1.198,-47.029 10.898,-107.009c13.583,-83.993 63.395,-202.978 145.513,-292.29c211.199,-229.702 563.717,-255.832 799.107,-54.701c33.059,28.248 46.802,37.556 24.697,60.122c-2.14,2.185 -24.872,25.391 -26.957,27.108c-41.389,34.082 -30.177,-41.644 -224.162,-110.014c-27.408,-9.66 -102.531,-22.696 -162.627,-20.216c-158.765,6.552 -256.645,85.088 -259.103,86.753c-196.501,133.071 -214.814,342.444 -216.82,367.008c-9.471,115.981 21.252,192.848 21.724,194.529c36.36,129.447 141.543,240.885 248.716,292.111c4.467,2.135 40.704,19.455 56.666,24.869c231.766,78.6 397.798,-29.334 416.704,-39.969c88.244,-49.636 89.032,-89.426 123.645,-56.031c23.861,23.021 35.411,32.227 30.056,48.299c-3.085,9.259 -60.841,54.701 -76.65,64.413c-92.155,56.614 -178.073,104.785 -366.546,98.721c-100.719,-3.24 -221.176,-46.465 -302.816,-108.046c-69.281,-52.259 -111.533,-94.634 -152.133,-161.948c-46.917,-77.788 -52.944,-106.593 -61.21,-130.907c-25.962,-76.369 -27.669,-143.28 -28.702,-182.804Z" style="fill:#0b1623;"/>
    <path d="M1060.668,1128.863c4.026,-0.164 94.587,3.094 180.655,-60.15c28.431,-20.891 33.72,-35.101 58.543,-10.05c21.952,22.153 42.128,37.64 28.945,55.643c-4.931,6.735 -60.686,46.687 -66.418,49.766c-104.428,56.106 -179.622,58.712 -256.014,52.096c-35.702,-3.092 -113.761,-28.676 -151.991,-55.29c-19.468,-13.553 -52.45,-32.79 -92.951,-79.883c-106.086,-123.354 -124.174,-309.299 -43.46,-449.333c133.717,-231.992 416.655,-249.398 581.468,-122.186c31.776,24.526 46.977,33.332 22.164,59.195c-18.273,19.046 -30.921,35.549 -46.386,33.777c-19.921,-2.282 -60.438,-63.652 -182.224,-79.978c-110.288,-14.784 -201.162,47.495 -218.223,61.682c-61.984,51.543 -80.816,95.281 -89.74,113.033c-21.597,42.961 -30.866,114.558 -27.349,148.942c15.887,155.359 115.865,218.15 117.134,219.097c75.585,56.354 134.199,62.042 185.848,63.638Z" style="fill:#0b1622;"/>
  </g>
</svg>
